<svg xmlns="http://www.w3.org/2000/svg" width="22" height="22" viewBox="0 0 22 22"><g><g><path fill="#fff" d="M21 11c0 5.52-4.48 10-10 10S1 16.52 1 11 5.48 1 11 1s10 4.48 10 10zm-10 8c1.86 0 3.57-.64 4.93-1.72-.42-.9-3.05-1.78-4.93-1.78s-4.5.88-4.93 1.78A7.893 7.893 0 0 0 11 19zm8-8c0-4.41-3.59-8-8-8s-8 3.59-8 8c0 1.82.62 3.49 1.64 4.83 1.43-1.74 4.9-2.33 6.36-2.33s4.93.59 6.36 2.33A7.95 7.95 0 0 0 19 11zm-4.5-2.5c0 1.94-1.56 3.5-3.5 3.5s-3.5-1.56-3.5-3.5S9.06 5 11 5s3.5 1.56 3.5 3.5zm-2 0c0-.83-.67-1.5-1.5-1.5s-1.5.67-1.5 1.5.67 1.5 1.5 1.5 1.5-.67 1.5-1.5z"/><path fill="none" stroke="#000" stroke-miterlimit="20" d="M21 11c0 5.52-4.48 10-10 10S1 16.52 1 11 5.48 1 11 1s10 4.48 10 10zm-10 8c1.86 0 3.57-.64 4.93-1.72-.42-.9-3.05-1.78-4.93-1.78s-4.5.88-4.93 1.78A7.893 7.893 0 0 0 11 19zm8-8c0-4.41-3.59-8-8-8s-8 3.59-8 8c0 1.82.62 3.49 1.64 4.83 1.43-1.74 4.9-2.33 6.36-2.33s4.93.59 6.36 2.33A7.95 7.95 0 0 0 19 11zm-4.5-2.5c0 1.94-1.56 3.5-3.5 3.5s-3.5-1.56-3.5-3.5S9.06 5 11 5s3.5 1.56 3.5 3.5zm-2 0c0-.83-.67-1.5-1.5-1.5s-1.5.67-1.5 1.5.67 1.5 1.5 1.5 1.5-.67 1.5-1.5z"/></g></g></svg>